{
.appVersion = "3151";
.formatVersion = 3;
customParameters = (
{
name = vendorID;
value = ADBO;
},
{
name = panose;
value = (
2,
11,
2,
0,
0,
0,
0,
0,
0,
0
);
},
{
name = unicodeRanges;
value = (
0,
1,
7,
29,
36,
42,
43,
44,
45,
48,
49,
50,
51,
52,
54,
55,
57,
59,
61,
65,
66,
68
);
},
{
name = codePageRanges;
value = (
"1252",
"1250",
"1251",
"1258",
"932",
"936",
"bit 29",
"bit 30"
);
},
{
name = fsType;
value = (
);
}
);
date = "2021-04-29 08:43:11 +0000";
familyName = "Yaku Han JP";
featurePrefixes = (
{
automatic = 1;
code = "languagesystem DFLT dflt;
";
name = Languagesystems;
}
);
features = (
{
automatic = 1;
code = "feature vert;
feature vrt2;
";
tag = aalt;
},
{
code = "sub comma-han by comma-han.vert;
sub period-han by period-han.vert;
sub colon.full by colon.full.vert;
sub blacklenticularbracketleft by blacklenticularbracketleft.vert;
sub blacklenticularbracketright by blacklenticularbracketright.vert;
sub cornerbracketleft by cornerbracketleft.vert;
sub cornerbracketright by cornerbracketright.vert;
sub dblanglebracketleft by dblanglebracketleft.vert;
sub dblanglebracketright by dblanglebracketright.vert;
sub tortoiseshellbracketleft by tortoiseshellbracketleft.vert;
sub tortoiseshellbracketright by tortoiseshellbracketright.vert;
sub whitecornerbracketleft by whitecornerbracketleft.vert;
sub whitecornerbracketright by whitecornerbracketright.vert;
sub whitelenticularbracketleft by whitelenticularbracketleft.vert;
sub whitelenticularbracketright by whitelenticularbracketright.vert;
sub braceleft.full by braceleft.full.vert;
sub braceright.full by braceright.full.vert;
sub bracketleft.full by bracketleft.full.vert;
sub bracketright.full by bracketright.full.vert;
sub parenleft.full by parenleft.full.vert;
sub parenright.full by parenright.full.vert;
sub angleLeft by anglebracketleft.vert;
sub angleRight by anglebracketright.vert;";
tag = vert;
},
{
automatic = 1;
code = "sub comma-han by comma-han.vert;
sub period-han by period-han.vert;

glyphs = (
{
glyphname = .notdef;
lastChange = "2023-08-27 12:32:26 +0000";
layers = (
{
layerId = m01;
shapes = (
{
closed = 1;
nodes = (
(900,880,l),
(100,880,l),
(100,-120,l),
(900,-120,l)
);
},
{
closed = 1;
nodes = (
(818,830,l),
(500,421,l),
(182,830,l)
);
},
{
closed = 1;
nodes = (
(850,-29,l),
(532,380,l),
(850,789,l)
);
},
{
closed = 1;
nodes = (
(818,-70,l),
(182,-70,l),
(500,339,l)
);
},
{
closed = 1;
nodes = (
(150,-29,l),
(150,789,l),
(468,380,l)
);
}
);
vertWidth = 1000;
width = 1000;
}
);
note = ".notdef";
},
{
glyphname = "comma-han";
lastChange = "2023-08-27 12:32:26 +0000";
layers = (
{
layerId = m01;
shapes = (
{
closed = 1;
nodes = (
(310,39,o),
(233,119,o),
(153,195,o),
(117,224,q),
(52,167,l),
(88,138,o),
(165,64,o),
(241,-16,o),
(273,-56,q),
(341,2,l)
);
}
);
vertWidth = 1000;
width = 1000;
}
);
note = uni3001;
unicode = 12289;
},
{
glyphname = "comma-han.vert";
lastChange = "2023-08-27 12:32:26 +0000";
layers = (
{
layerId = m01;
shapes = (
{
closed = 1;
nodes = (
(916,643,o),
(840,721,o),
(761,796,o),
(726,824,q),
(662,768,l),
(714,726,o),
(832,607,o),
(880,549,q),
(946,606,l)
);
}
);
vertWidth = 1000;
width = 1000;
}
);
note = uniFE11;
unicode = 65041;
},
{
glyphname = "period-han";
lastChange = "2023-08-27 12:32:26 +0000";
layers = (
{
layerId = m01;
shapes = (
{
closed = 1;
nodes = (
(83,203,o),
(42,134,o),
(42,92,qs),
(42,50,o),
(83,-19,o),
(152,-61,o),
(194,-61,qs),
(237,-61,o),
(305,-19,o),
(347,50,o),
(347,92,qs),
(347,134,o),
(305,203,o),
(237,244,o),
(194,244,qs),
(153,244,o)
);
},
{
closed = 1;
nodes = (
(121,17,o),
(93,64,o),
(93,92,qs),
(93,119,o),
(121,165,o),
(167,193,o),
(194,193,qs),
(223,193,o),
(269,165,o),
(296,119,o),
(296,92,qs),
(296,49,o),
(237,-10,o),
(194,-10,qs),
(167,-10,o)
);
}
);
vertWidth = 1000;
width = 1000;
}
);
note = uni3002;
unicode = 12290;
},
{
glyphname = "period-han.vert";
lastChange = "2023-08-27 12:32:26 +0000";
layers = (
{
layerId = m01;
shapes = (
{
closed = 1;
nodes = (
(693,774,o),
(653,706,o),
(653,665,qs),
(653,623,o),
(693,556,o),
(762,515,o),
(803,515,qs),
(844,515,o),
(912,556,o),
(953,623,o),
(953,665,qs),
(953,706,o),
(912,774,o),
(844,815,o),
(803,815,qs),
(762,815,o)
);
},
{
closed = 1;
nodes = (
(730,592,o),
(703,637,o),
(703,665,qs),
(703,693,o),
(730,737,o),
(776,764,o),
(803,764,qs),
(830,764,o),
(876,737,o),
(902,693,o),
(902,665,qs),
(902,623,o),
(844,565,o),
(802,565,qs),
(776,565,o)
);
}
);
vertWidth = 1000;
width = 1000;
}
);
note = uniFE12;
unicode = 65042;
},
{
glyphname = hyphenationpoint;
lastChange = "2023-08-27 12:32:26 +0000";
layers = (
{
layerId = m01;
shapes = (
{
closed = 1;
nodes = (
(422,458,o),
(394,410,o),
(394,380,qs),
(394,351,o),
(422,302,o),
(471,274,o),
(500,274,qs),
(530,274,o),
(578,302,o),
(606,351,o),
(606,380,qs),
(606,410,o),
(578,458,o),
(530,486,o),
(500,486,qs),
(471,486,o)
);
}
);
vertWidth = 1000;
width = 1000;
}
);
note = uni2027;
unicode = (8231,12539);
},
{
glyphname = colon.full;
lastChange = "2023-08-27 12:32:26 +0000";
layers = (
{
layerId = m01;
shapes = (
{
closed = 1;
nodes = (
(576,585,o),
(576,619,qs),
(576,653,o),
(530,694,o),
(500,694,qs),
(470,694,o),
(424,653,o),
(424,619,qs),
(424,585,o),
(470,544,o),
(500,544,qs),
(530,544,o)
);
},
{
closed = 1;
nodes = (
(576,95,o),
(576,129,qs),
(576,164,o),
(530,205,o),
(500,205,qs),
(470,205,o),
(424,164,o),
(424,129,qs),
(424,95,o),
(470,54,o),
(500,54,qs),
(530,54,o)
);
}
);
vertWidth = 1000;
width = 1000;
}
);
note = uniFF1A;
unicode = 65306;
},
{
glyphname = exclam.full;
lastChange = "2023-08-27 12:32:26 +0000";
layers = (
{
layerId = m01;
shapes = (
{
closed = 1;
nodes = (
(553,630,l),
(555,748,l),
(445,748,l),
(447,630,l),
(467,242,l),
(533,242,l)
);
},
{
closed = 1;
nodes = (
(564,31,o),
(564,61,qs),
(564,91,o),
(526,128,o),
(500,128,qs),
(474,128,o),
(436,91,o),
(436,61,qs),
(436,31,o),
(473,-5,o),
(500,-5,qs),
(526,-5,o)
);
}
);
vertWidth = 1000;
width = 1000;
}
);
note = uniFF01;
unicode = 65281;
},
{
glyphname = question.full;
lastChange = "2023-08-27 12:32:26 +0000";
layers = (
{
layerId = m01;
shapes = (
{
closed = 1;
nodes = (
(520,279,o),
(545,337,o),
(594,385,o),
(652,430,o),
(705,478,o),
(739,536,o),
(739,574,qs),
(739,632,o),
(682,715,o),
(579,761,o),
(508,761,qs),
(427,761,o),
(305,698,o),
(255,645,q),
(309,595,l),
(352,641,o),
(447,686,o),
(498,686,qs),
(550,686,o),
(616,655,o),
(650,601,o),
(650,566,qs),
(650,538,o),
(616,491,o),
(564,447,o),
(507,402,o),
(460,349,o),
(437,283,o),
(445,242,q),
(527,242,l)
);
},
{
closed = 1;
nodes = (
(552,31,o),
(552,61,qs),
(552,91,o),
(514,128,o),
(488,128,qs),
(461,128,o),
(423,91,o),
(423,61,qs),
(423,31,o),
(461,-5,o),
(488,-5,qs),
(514,-5,o)
);
}
);
vertWidth = 1000;
width = 1000;
}
);
note = uniFF1F;
unicode = 65311;
},
{
glyphname = semicolon.full;
lastChange = "2023-08-27 12:32:26 +0000";
layers = (
{
layerId = m01;
shapes = (
{
closed = 1;
nodes = (
(592,51,o),
(592,138,qs),
(592,194,o),
(548,260,o),
(506,260,qs),
(476,260,o),
(430,224,o),
(430,188,qs),
(430,152,o),
(474,116,o),
(505,116,qs),
(519,116,o),
(547,126,o),
(558,139,q),
(504,214,l),
(523,127,l),
(523,65,o),
(459,-22,o),
(396,-50,q),
(419,-103,l),
(499,-72,o)
);
},
{
closed = 1;
nodes = (
(576,585,o),
(576,619,qs),
(576,653,o),
(530,694,o),
(500,694,qs),
(470,694,o),
(424,653,o),
(424,619,qs),
(424,585,o),
(470,544,o),
(500,544,qs),
(530,544,o)
);
}
);
vertWidth = 1000;
width = 1000;
}
);
note = uniFF1B;
unicode = 65307;
},
{
glyphname = colon.full.vert;
lastChange = "2023-08-27 12:32:26 +0000";
layers = (
{
layerId = m01;
shapes = (
{
closed = 1;
nodes = (
(331,340,o),
(331,374,qs),
(331,409,o),
(286,449,o),
(255,449,qs),
(225,449,o),
(180,409,o),
(180,374,qs),
(180,340,o),
(225,299,o),
(255,299,qs),
(286,299,o)
);
},
{
closed = 1;
nodes = (
(820,340,o),
(820,374,qs),
(820,409,o),
(775,449,o),
(745,449,qs),
(714,449,o),
(669,409,o),
(669,374,qs),
(669,340,o),
(714,299,o),
(745,299,qs),
(775,299,o)
);
}
);
vertWidth = 1000;
width = 1000;
}
);
note = glyph17776;
},
{
glyphname = angleLeft;
lastChange = "2023-08-27 12:32:26 +0000";
layers = (
{
layerId = m01;
shapes = (
{
closed = 1;
nodes = (
(948,817,l),
(885,846,l),
(588,380,l),
(885,-86,l),
(948,-57,l),
(668,380,l)
);
}
);
vertWidth = 1000;
width = 1000;
}
);
note = uni2329;
unicode = (9001,12296);
},
{
glyphname = angleRight;
lastChange = "2023-08-27 12:32:26 +0000";
layers = (
{
layerId = m01;
shapes = (
{
closed = 1;
nodes = (
(412,380,l),
(115,846,l),
(52,817,l),
(332,380,l),
(52,-57,l),
(115,-86,l)
);
}
);
vertWidth = 1000;
width = 1000;
}
);
note = uni3009;
unicode = (9002,12297);
},
{
glyphname = blacklenticularbracketleft;
lastChange = "2023-08-27 12:32:26 +0000";
layers = (
{
layerId = m01;
shapes = (
{
closed = 1;
nodes = (
(666,846,l),
(666,-86,l),
(966,-86,l),
(966,-81,l),
(912,-34,o),
(822,103,o),
(768,279,o),
(768,380,qs),
(768,482,o),
(822,657,o),
(912,795,o),
(966,841,q),
(966,846,l)
);
}
);
vertWidth = 1000;
width = 1000;
}
);
note = uni3010;
unicode = 12304;
},
{
glyphname = blacklenticularbracketright;
lastChange = "2023-08-27 12:32:26 +0000";
layers = (
{
layerId = m01;
shapes = (
{
closed = 1;
nodes = (
(34,846,l),
(34,841,l),
(89,795,o),
(178,657,o),
(232,482,o),
(232,380,qs),
(232,279,o),
(178,103,o),
(89,-34,o),
(34,-81,q),
(34,-86,l),
(334,-86,l),
(334,846,l)
);
}
);
vertWidth = 1000;
width = 1000;
}
);
note = uni3011;
unicode = 12305;
},
{
glyphname = braceleft.full;
lastChange = "2023-08-27 12:32:26 +0000";
layers = (
{
layerId = m01;
shapes = (
{
closed = 1;
nodes = (
(965,-43,l),
(933,-43,ls),
(888,-43,o),
(858,4,o),
(858,58,qs),
(858,108,o),
(863,202,o),
(863,258,qs),
(863,312,o),
(834,368,o),
(797,378,q),
(797,382,l),
(834,392,o),
(863,449,o),
(863,502,qs),
(863,559,o),
(858,652,o),
(858,703,qs),
(858,757,o),
(888,804,o),
(933,804,qs),
(965,804,l),
(965,855,l),
(917,855,ls),
(852,855,o),
(788,793,o),
(788,707,qs),
(788,668,o),
(793,599,o),
(798,532,o),
(798,494,qs),
(798,473,o),
(781,434,o),
(741,408,o),
(703,408,q),
(703,352,l),
(741,352,o),
(781,326,o),
(798,288,o),
(798,267,qs),
(798,230,o),
(793,162,o),
(788,93,o),
(788,53,qs),
(788,-32,o),
(852,-95,o),
(917,-95,qs),
(965,-95,l)
);
}
);
vertWidth = 1000;
width = 1000;
}
);
note = uniFF5B;
unicode = 65371;
},
{
glyphname = braceright.full;
lastChange = "2023-08-27 12:32:26 +0000";
layers = (
{
layerId = m01;
shapes = (
{
closed = 1;
nodes = (
(35,-43,l),
(67,-43,ls),
(113,-43,o),
(142,4,o),
(142,58,qs),
(142,108,o),
(137,202,o),
(137,258,qs),
(137,312,o),
(166,368,o),
(203,378,q),
(203,382,l),
(166,392,o),
(137,449,o),
(137,502,qs),
(137,559,o),
(142,652,o),
(142,703,qs),
(142,757,o),
(113,804,o),
(67,804,qs),
(35,804,l),
(35,855,l),
(83,855,ls),
(148,855,o),
(212,793,o),
(212,707,qs),
(212,668,o),
(207,599,o),
(202,532,o),
(202,494,qs),
(202,473,o),
(219,434,o),
(260,408,o),
(297,408,q),
(297,352,l),
(260,352,o),
(219,326,o),
(202,288,o),
(202,267,qs),
(202,230,o),
(207,162,o),
(212,93,o),
(212,53,qs),
(212,-32,o),
(148,-95,o),
(83,-95,qs),
(35,-95,l)
);
}
);
vertWidth = 1000;
width = 1000;
}
);
note = uniFF5D;
unicode = 65373;
},
{
glyphname = cornerbracketleft;
lastChange = "2023-08-27 12:32:26 +0000";
layers = (
{
layerId = m01;
shapes = (
{
closed = 1;
nodes = (
(724,199,l),
(724,777,l),
(966,777,l),
(966,846,l),
(650,846,l),
(650,199,l)
);
}
);
vertWidth = 1000;
width = 1000;
}
);
note = uni300C;
unicode = 12300;
},
{
glyphname = cornerbracketright;
lastChange = "2023-08-27 12:32:26 +0000";
layers = (
{
layerId = m01;
shapes = (
{
closed = 1;
nodes = (
(276,561,l),
(276,-17,l),
(34,-17,l),
(34,-86,l),
(350,-86,l),
(350,561,l)
);
}
);
vertWidth = 1000;
width = 1000;
}
);
note = uni300D;
unicode = 12301;
},
{
glyphname = dblanglebracketleft;
lastChange = "2023-08-27 12:32:26 +0000";
layers = (
{
layerId = m01;
shapes = (
{
closed = 1;
nodes = (
(806,828,l),
(751,846,l),
(529,380,l),
(751,-86,l),
(806,-68,l),
(590,380,l)
);
},
{
closed = 1;
nodes = (
(963,828,l),
(909,846,l),
(687,380,l),
(909,-86,l),
(963,-68,l),
(748,380,l)
);
}
);
vertWidth = 1000;
width = 1000;
}
);
note = uni300A;
unicode = 12298;
},
{
glyphname = dblanglebracketright;
lastChange = "2023-08-27 12:32:26 +0000";
layers = (
{
layerId = m01;
shapes = (
{
closed = 1;
nodes = (
(470,380,l),
(248,846,l),
(194,828,l),
(409,380,l),
(194,-68,l),
(248,-86,l)
);
},
{
closed = 1;
nodes = (
(312,380,l),
(90,846,l),
(36,828,l),
(251,380,l),
(36,-68,l),
(90,-86,l)
);
}
);
vertWidth = 1000;
width = 1000;
}
);
note = uni300B;
unicode = 12299;
},
{
glyphname = tortoiseshellbracketleft;
lastChange = "2023-08-27 12:32:26 +0000";
layers = (
{
layerId = m01;
shapes = (
{
closed = 1;
nodes = (
(961,-46,l),
(783,68,l),
(783,692,l),
(961,806,l),
(928,858,l),
(712,718,l),
(712,42,l),
(928,-98,l)
);
}
);
vertWidth = 1000;
width = 1000;
}
);
note = uni3014;
unicode = 12308;
},
{
glyphname = tortoiseshellbracketright;
lastChange = "2023-08-27 12:32:26 +0000";
layers = (
{
layerId = m01;
shapes = (
{
closed = 1;
nodes = (
(39,-46,l),
(217,68,l),
(217,692,l),
(39,806,l),
(72,858,l),
(288,718,l),
(288,42,l),
(72,-98,l)
);
}
);
vertWidth = 1000;
width = 1000;
}
);
note = uni3015;
unicode = 12309;
},
{
glyphname = whitecornerbracketleft;
lastChange = "2023-08-27 12:32:26 +0000";
layers = (
{
layerId = m01;
shapes = (
{
closed = 1;
nodes = (
(966,846,l),
(599,846,l),
(599,183,l),
(770,183,l),
(770,690,l),
(966,690,l)
);
},
{
closed = 1;
nodes = (
(933,723,l),
(737,723,l),
(737,216,l),
(632,216,l),
(632,813,l),
(933,813,l)
);
}
);
vertWidth = 1000;
width = 1000;
}
);
note = uni300E;
unicode = 12302;
},
{
glyphname = whitecornerbracketright;
lastChange = "2023-08-27 12:32:26 +0000";
layers = (
{
layerId = m01;
shapes = (
{
closed = 1;
nodes = (
(34,-86,l),
(401,-86,l),
(401,577,l),
(230,577,l),
(230,70,l),
(34,70,l)
);
},
{
closed = 1;
nodes = (
(67,37,l),
(263,37,l),
(263,544,l),
(368,544,l),
(368,-53,l),
(67,-53,l)
);
}
);
vertWidth = 1000;
width = 1000;
}
);
note = uni300F;
unicode = 12303;
},
{
glyphname = whitelenticularbracketleft;
lastChange = "2023-08-27 12:32:26 +0000";
layers = (
{
layerId = m01;
shapes = (
{
closed = 1;
nodes = (
(887,-32,o),
(769,93,o),
(703,269,o),
(703,380,qs),
(703,491,o),
(769,666,o),
(887,793,o),
(966,829,q),
(966,846,l),
(623,846,l),
(623,-86,l),
(966,-86,l),
(966,-69,l)
);
},
{
closed = 1;
nodes = (
(646,822,l),
(903,822,l),
(868,800,o),
(789,727,o),
(722,620,o),
(679,475,o),
(679,380,qs),
(679,285,o),
(722,140,o),
(790,33,o),
(868,-40,o),
(903,-62,q),
(646,-62,l)
);
}
);
vertWidth = 1000;
width = 1000;
}
);
note = uni3016;
unicode = 12310;
},
{
glyphname = whitelenticularbracketright;
lastChange = "2023-08-27 12:32:26 +0000";
layers = (
{
layerId = m01;
shapes = (
{
closed = 1;
nodes = (
(377,-86,l),
(377,846,l),
(34,846,l),
(34,829,l),
(113,793,o),
(231,666,o),
(297,491,o),
(297,380,qs),
(297,270,o),
(231,93,o),
(113,-32,o),
(34,-69,q),
(34,-86,l)
);
},
{
closed = 1;
nodes = (
(132,-40,o),
(211,33,o),
(278,140,o),
(321,285,o),
(321,380,qs),
(321,475,o),
(278,620,o),
(210,727,o),
(132,800,o),
(97,822,q),
(354,822,l),
(354,-62,l),
(97,-62,l)
);
}
);
vertWidth = 1000;
width = 1000;
}
);
note = uni3017;
unicode = 12311;
},
{
glyphname = anglebracketleft.vert;
lastChange = "2023-08-27 12:32:26 +0000";
layers = (
{
layerId = m01;
shapes = (
{
closed = 1;
nodes = (
(937,-68,l),
(966,-5,l),
(500,292,l),
(34,-5,l),
(63,-68,l),
(500,212,l)
);
}
);
vertWidth = 1000;
width = 1000;
}
);
note = uniFE3F;
unicode = 65087;
},
{
glyphname = anglebracketright.vert;
lastChange = "2023-08-27 12:32:26 +0000";
layers = (
{
layerId = m01;
shapes = (
{
closed = 1;
nodes = (
(63,828,l),
(34,765,l),
(500,468,l),
(966,765,l),
(937,828,l),
(500,548,l)
);
}
);
vertWidth = 1000;
width = 1000;
}
);
note = uniFE40;
unicode = 65088;
},
{
glyphname = blacklenticularbracketleft.vert;
lastChange = "2023-08-27 12:32:26 +0000";
layers = (
{
layerId = m01;
shapes = (
{
closed = 1;
nodes = (
(966,214,l),
(34,214,l),
(34,-86,l),
(39,-86,l),
(86,-31,o),
(223,58,o),
(399,112,o),
(500,112,qs),
(602,112,o),
(777,58,o),
(915,-31,o),
(961,-86,q),
(966,-86,l)
);
}
);
vertWidth = 1000;
width = 1000;
}
);
note = uniFE3B;
unicode = 65083;
},
{
glyphname = blacklenticularbracketright.vert;
lastChange = "2023-08-27 12:32:26 +0000";
layers = (
{
layerId = m01;
shapes = (
{
closed = 1;
nodes = (
(966,846,l),
(961,846,l),
(915,792,o),
(777,702,o),
(602,648,o),
(500,648,qs),
(399,648,o),
(223,702,o),
(86,792,o),
(39,846,q),
(34,846,l),
(34,546,l),
(966,546,l)
);
}
);
vertWidth = 1000;
width = 1000;
}
);
note = uniFE3C;
unicode = 65084;
},
{
glyphname = bracketleft.full;
lastChange = "2023-08-27 12:32:26 +0000";
layers = (
{
layerId = m01;
shapes = (
{
closed = 1;
nodes = (
(966,-86,l),
(966,-33,l),
(781,-33,l),
(781,793,l),
(966,793,l),
(966,846,l),
(712,846,l),
(712,-86,l)
);
}
);
vertWidth = 1000;
width = 1000;
}
);
note = uniFF3B;
unicode = 65339;
},
{
glyphname = bracketright.full;
lastChange = "2023-08-27 12:32:26 +0000";
layers = (
{
layerId = m01;
shapes = (
{
closed = 1;
nodes = (
(34,-86,l),
(34,-33,l),
(219,-33,l),
(219,793,l),
(34,793,l),
(34,846,l),
(288,846,l),
(288,-86,l)
);
}
);
vertWidth = 1000;
width = 1000;
}
);
note = uniFF3D;
unicode = 65341;
},
{
glyphname = cornerbracketleft.vert;
lastChange = "2023-08-27 12:32:26 +0000";
layers = (
{
layerId = m01;
shapes = (
{
closed = 1;
nodes = (
(269,158,l),
(901,158,l),
(901,-86,l),
(975,-86,l),
(975,230,l),
(269,230,l)
);
}
);
vertWidth = 1000;
width = 1000;
}
);
note = uniFE41;
unicode = 65089;
},
{
glyphname = cornerbracketright.vert;
lastChange = "2023-08-27 12:32:26 +0000";
layers = (
{
layerId = m01;
shapes = (
{
closed = 1;
nodes = (
(731,594,l),
(99,594,l),
(99,838,l),
(25,838,l),
(25,522,l),
(731,522,l)
);
}
);
vertWidth = 1000;
width = 1000;
}
);
note = uniFE42;
unicode = 65090;
},
{
glyphname = dblanglebracketleft.vert;
lastChange = "2023-08-27 12:32:26 +0000";
layers = (
{
layerId = m01;
shapes = (
{
closed = 1;
nodes = (
(948,74,l),
(966,128,l),
(500,350,l),
(34,128,l),
(52,74,l),
(500,289,l)
);
},
{
closed = 1;
nodes = (
(948,-84,l),
(966,-30,l),
(500,192,l),
(34,-30,l),
(52,-84,l),
(500,131,l)
);
}
);
vertWidth = 1000;
width = 1000;
}
);
note = uniFE3D;
unicode = 65085;
},
{
glyphname = dblanglebracketright.vert;
lastChange = "2023-08-27 12:32:26 +0000";
layers = (
{
layerId = m01;
shapes = (
{
closed = 1;
nodes = (
(52,686,l),
(34,632,l),
(500,410,l),
(966,632,l),
(948,686,l),
(500,471,l)
);
},
{
closed = 1;
nodes = (
(52,844,l),
(34,790,l),
(500,568,l),
(966,790,l),
(948,844,l),
(500,629,l)
);
}
);
vertWidth = 1000;
width = 1000;
}
);
note = uniFE3E;
unicode = 65086;
},
{
glyphname = parenleft.full;
lastChange = "2023-08-27 12:32:26 +0000";
layers = (
{
layerId = m01;
shapes = (
{
closed = 1;
nodes = (
(744,112,o),
(834,-34,o),
(894,-96,q),
(954,-65,l),
(897,-5,o),
(813,133,o),
(768,291,o),
(768,380,qs),
(768,470,o),
(813,627,o),
(897,766,o),
(954,825,q),
(894,856,l),
(834,795,o),
(744,648,o),
(695,478,o),
(695,380,qs),
(695,283,o)
);
}
);
vertWidth = 1000;
width = 1000;
}
);
note = uniFF08;
unicode = 65288;
},
{
glyphname = parenright.full;
lastChange = "2023-08-27 12:32:26 +0000";
layers = (
{
layerId = m01;
shapes = (
{
closed = 1;
nodes = (
(256,648,o),
(166,795,o),
(106,856,q),
(46,825,l),
(103,766,o),
(187,627,o),
(232,470,o),
(232,380,qs),
(232,291,o),
(187,133,o),
(103,-5,o),
(46,-65,q),
(106,-96,l),
(166,-34,o),
(256,112,o),
(305,283,o),
(305,380,qs),
(305,478,o)
);
}
);
vertWidth = 1000;
width = 1000;
}
);
note = uniFF09;
unicode = 65289;
},
{
glyphname = tortoiseshellbracketleft.vert;
lastChange = "2023-08-27 12:32:26 +0000";
layers = (
{
layerId = m01;
shapes = (
{
closed = 1;
nodes = (
(74,-81,l),
(188,97,l),
(812,97,l),
(926,-81,l),
(978,-48,l),
(838,168,l),
(162,168,l),
(22,-48,l)
);
}
);
vertWidth = 1000;
width = 1000;
}
);
note = uniFE39;
unicode = 65081;
},
{
glyphname = tortoiseshellbracketright.vert;
lastChange = "2023-08-27 12:32:26 +0000";
layers = (
{
layerId = m01;
shapes = (
{
closed = 1;
nodes = (
(74,841,l),
(188,663,l),
(812,663,l),
(926,841,l),
(978,808,l),
(838,592,l),
(162,592,l),
(22,808,l)
);
}
);
vertWidth = 1000;
width = 1000;
}
);
note = uniFE3A;
unicode = 65082;
},
{
glyphname = whitecornerbracketleft.vert;
lastChange = "2023-08-27 12:32:26 +0000";
layers = (
{
layerId = m01;
shapes = (
{
closed = 1;
nodes = (
(966,-86,l),
(966,265,l),
(303,265,l),
(303,109,l),
(800,109,l),
(800,-86,l)
);
},
{
closed = 1;
nodes = (
(833,-53,l),
(833,142,l),
(336,142,l),
(336,232,l),
(933,232,l),
(933,-53,l)
);
}
);
vertWidth = 1000;
width = 1000;
}
);
note = uniFE43;
unicode = 65091;
},
{
glyphname = whitecornerbracketright.vert;
lastChange = "2023-08-27 12:32:26 +0000";
layers = (
{
layerId = m01;
shapes = (
{
closed = 1;
nodes = (
(34,846,l),
(34,495,l),
(697,495,l),
(697,651,l),
(200,651,l),
(200,846,l)
);
},
{
closed = 1;
nodes = (
(167,813,l),
(167,618,l),
(664,618,l),
(664,528,l),
(67,528,l),
(67,813,l)
);
}
);
vertWidth = 1000;
width = 1000;
}
);
note = uniFE44;
unicode = 65092;
},
{
glyphname = whitelenticularbracketleft.vert;
lastChange = "2023-08-27 12:32:26 +0000";
layers = (
{
layerId = m01;
shapes = (
{
closed = 1;
nodes = (
(88,-7,o),
(213,111,o),
(389,177,o),
(500,177,qs),
(611,177,o),
(786,111,o),
(913,-7,o),
(949,-86,q),
(966,-86,l),
(966,257,l),
(34,257,l),
(34,-86,l),
(51,-86,l)
);
},
{
closed = 1;
nodes = (
(942,234,l),
(942,-23,l),
(920,12,o),
(847,91,o),
(740,158,o),
(595,201,o),
(500,201,qs),
(405,201,o),
(260,158,o),
(153,90,o),
(80,12,o),
(58,-23,q),
(58,234,l)
);
}
);
vertWidth = 1000;
width = 1000;
}
);
note = uniFE17;
unicode = 65047;
},
{
glyphname = whitelenticularbracketright.vert;
lastChange = "2023-08-27 12:32:26 +0000";
layers = (
{
layerId = m01;
shapes = (
{
closed = 1;
nodes = (
(34,503,l),
(966,503,l),
(966,846,l),
(949,846,l),
(913,767,o),
(786,649,o),
(611,583,o),
(500,583,qs),
(390,583,o),
(213,649,o),
(88,767,o),
(51,846,q),
(34,846,l)
);
},
{
closed = 1;
nodes = (
(80,748,o),
(153,669,o),
(260,602,o),
(405,559,o),
(500,559,qs),
(595,559,o),
(740,602,o),
(847,670,o),
(920,748,o),
(942,783,q),
(942,526,l),
(58,526,l),
(58,783,l)
);
}
);
vertWidth = 1000;
width = 1000;
}
);
note = uniFE18;
unicode = 65048;
},
{
glyphname = braceleft.full.vert;
lastChange = "2023-08-27 12:32:26 +0000";
layers = (
{
layerId = m01;
shapes = (
{
closed = 1;
nodes = (
(77,-85,l),
(77,-53,ls),
(77,-7,o),
(124,22,o),
(178,22,qs),
(228,22,o),
(322,17,o),
(378,17,qs),
(432,17,o),
(488,46,o),
(498,83,q),
(502,83,l),
(512,46,o),
(569,17,o),
(622,17,qs),
(679,17,o),
(772,22,o),
(823,22,qs),
(877,22,o),
(924,-7,o),
(924,-53,qs),
(924,-85,l),
(975,-85,l),
(975,-37,ls),
(975,28,o),
(913,92,o),
(827,92,qs),
(788,92,o),
(719,87,o),
(652,82,o),
(614,82,qs),
(593,82,o),
(554,99,o),
(528,140,o),
(528,177,q),
(472,177,l),
(472,140,o),
(446,99,o),
(408,82,o),
(387,82,qs),
(350,82,o),
(282,87,o),
(213,92,o),
(173,92,qs),
(88,92,o),
(25,28,o),
(25,-37,qs),
(25,-85,l)
);
}
);
vertWidth = 1000;
width = 1000;
}
);
note = uniFE37;
unicode = 65079;
},
{
glyphname = braceright.full.vert;
lastChange = "2023-08-27 12:32:26 +0000";
layers = (
{
layerId = m01;
shapes = (
{
closed = 1;
nodes = (
(923,845,l),
(923,813,ls),
(923,768,o),
(876,738,o),
(822,738,qs),
(772,738,o),
(678,743,o),
(622,743,qs),
(569,743,o),
(512,714,o),
(502,677,q),
(498,677,l),
(488,714,o),
(432,743,o),
(378,743,qs),
(321,743,o),
(228,738,o),
(177,738,qs),
(123,738,o),
(76,768,o),
(76,813,qs),
(76,845,l),
(25,845,l),
(25,797,ls),
(25,732,o),
(87,668,o),
(173,668,qs),
(213,668,o),
(281,673,o),
(349,678,o),
(386,678,qs),
(408,678,o),
(446,661,o),
(472,621,o),
(472,583,q),
(528,583,l),
(528,621,o),
(554,661,o),
(592,678,o),
(613,678,qs),
(651,678,o),
(718,673,o),
(787,668,o),
(827,668,qs),
(913,668,o),
(975,732,o),
(975,797,qs),
(975,845,l)
);
}
);
vertWidth = 1000;
width = 1000;
}
);
note = uniFE38;
unicode = 65080;
},
{
glyphname = bracketleft.full.vert;
lastChange = "2023-08-27 12:32:26 +0000";
layers = (
{
layerId = m01;
shapes = (
{
closed = 1;
nodes = (
(34,-86,l),
(87,-86,l),
(87,99,l),
(913,99,l),
(913,-86,l),
(966,-86,l),
(966,168,l),
(34,168,l)
);
}
);
vertWidth = 1000;
width = 1000;
}
);
note = uniFE47;
unicode = 65095;
},
{
glyphname = bracketright.full.vert;
lastChange = "2023-08-27 12:32:26 +0000";
layers = (
{
layerId = m01;
shapes = (
{
closed = 1;
nodes = (
(34,846,l),
(87,846,l),
(87,661,l),
(913,661,l),
(913,846,l),
(966,846,l),
(966,592,l),
(34,592,l)
);
}
);
vertWidth = 1000;
width = 1000;
}
);
note = uniFE48;
unicode = 65096;
},
{
glyphname = parenleft.full.vert;
lastChange = "2023-08-27 12:32:26 +0000";
layers = (
{
layerId = m01;
shapes = (
{
closed = 1;
nodes = (
(232,136,o),
(86,46,o),
(24,-14,q),
(55,-74,l),
(115,-17,o),
(253,67,o),
(411,112,o),
(500,112,qs),
(590,112,o),
(747,67,o),
(886,-17,o),
(945,-74,q),
(976,-14,l),
(915,46,o),
(768,136,o),
(598,185,o),
(500,185,qs),
(403,185,o)
);
}
);
vertWidth = 1000;
width = 1000;
}
);
note = uniFE35;
unicode = 65077;
},
{
glyphname = parenright.full.vert;
lastChange = "2023-08-27 12:32:26 +0000";
layers = (
{
layerId = m01;
shapes = (
{
closed = 1;
nodes = (
(768,624,o),
(915,714,o),
(976,774,q),
(945,834,l),
(886,777,o),
(747,693,o),
(590,648,o),
(500,648,qs),
(411,648,o),
(253,693,o),
(115,777,o),
(55,834,q),
(24,774,l),
(86,714,o),
(232,624,o),
(403,575,o),
(500,575,qs),
(598,575,o)
);
}
